<mxfile host="app.diagrams.net" modified="2024-03-26T18:15:16.162Z" agent="Mozilla/5.0 (Windows NT 10.0; Win64; x64; rv:124.0) Gecko/20100101 Firefox/124.0" etag="6kR9jb-RYHCvBpaxqjO1" version="24.1.0" type="device">
  <diagram name="Σελίδα-1" id="i426EweY9k0fB_F2wGhc">
    <mxGraphModel dx="2113" dy="1149" grid="0" gridSize="10" guides="1" tooltips="1" connect="1" arrows="1" fold="1" page="0" pageScale="1" pageWidth="827" pageHeight="1169" math="0" shadow="0">
      <root>
        <mxCell id="0" />
        <mxCell id="1" parent="0" />
        <mxCell id="jc9Oq-ymmOkImTj3RlM5-2" value="Τίτλος" style="rounded=0;whiteSpace=wrap;html=1;" vertex="1" parent="1">
          <mxGeometry x="-299" y="-35" width="197" height="24" as="geometry" />
        </mxCell>
        <mxCell id="jc9Oq-ymmOkImTj3RlM5-3" value="Έναρξη" style="rounded=0;whiteSpace=wrap;html=1;" vertex="1" parent="1">
          <mxGeometry x="-102" y="-35" width="77" height="24" as="geometry" />
        </mxCell>
        <mxCell id="jc9Oq-ymmOkImTj3RlM5-4" value="Λήξη" style="rounded=0;whiteSpace=wrap;html=1;" vertex="1" parent="1">
          <mxGeometry x="-25" y="-35" width="66" height="24" as="geometry" />
        </mxCell>
        <mxCell id="jc9Oq-ymmOkImTj3RlM5-5" value="Διάρκεια" style="rounded=0;whiteSpace=wrap;html=1;" vertex="1" parent="1">
          <mxGeometry x="41" y="-35" width="71" height="24" as="geometry" />
        </mxCell>
        <mxCell id="jc9Oq-ymmOkImTj3RlM5-7" value="Ανάλυση Απαιτήσεων" style="rounded=0;whiteSpace=wrap;html=1;" vertex="1" parent="1">
          <mxGeometry x="-299" y="-11" width="197" height="21" as="geometry" />
        </mxCell>
        <mxCell id="jc9Oq-ymmOkImTj3RlM5-8" value="7/3/2024" style="rounded=0;whiteSpace=wrap;html=1;" vertex="1" parent="1">
          <mxGeometry x="-102" y="-11" width="77" height="21" as="geometry" />
        </mxCell>
        <mxCell id="jc9Oq-ymmOkImTj3RlM5-10" value="12/3/2024" style="rounded=0;whiteSpace=wrap;html=1;" vertex="1" parent="1">
          <mxGeometry x="-25" y="-11" width="66" height="21" as="geometry" />
        </mxCell>
        <mxCell id="jc9Oq-ymmOkImTj3RlM5-11" value="6" style="rounded=0;whiteSpace=wrap;html=1;" vertex="1" parent="1">
          <mxGeometry x="41" y="-11" width="71" height="21" as="geometry" />
        </mxCell>
        <mxCell id="jc9Oq-ymmOkImTj3RlM5-16" value="Σχεδιασμός Λειτουργιών Εφαρμογής" style="rounded=0;whiteSpace=wrap;html=1;" vertex="1" parent="1">
          <mxGeometry x="-299" y="10" width="197" height="21" as="geometry" />
        </mxCell>
        <mxCell id="jc9Oq-ymmOkImTj3RlM5-17" value="13/3/2024" style="rounded=0;whiteSpace=wrap;html=1;" vertex="1" parent="1">
          <mxGeometry x="-102" y="10" width="77" height="21" as="geometry" />
        </mxCell>
        <mxCell id="jc9Oq-ymmOkImTj3RlM5-18" value="12/4/2024" style="rounded=0;whiteSpace=wrap;html=1;" vertex="1" parent="1">
          <mxGeometry x="-25" y="10" width="66" height="21" as="geometry" />
        </mxCell>
        <mxCell id="jc9Oq-ymmOkImTj3RlM5-19" value="30" style="rounded=0;whiteSpace=wrap;html=1;" vertex="1" parent="1">
          <mxGeometry x="41" y="10" width="71" height="21" as="geometry" />
        </mxCell>
        <mxCell id="jc9Oq-ymmOkImTj3RlM5-20" value="Σχεδιασμός Βάσης Δεδομένων" style="rounded=0;whiteSpace=wrap;html=1;" vertex="1" parent="1">
          <mxGeometry x="-299" y="31" width="197" height="21" as="geometry" />
        </mxCell>
        <mxCell id="jc9Oq-ymmOkImTj3RlM5-21" value="13/4/2024" style="rounded=0;whiteSpace=wrap;html=1;" vertex="1" parent="1">
          <mxGeometry x="-102" y="31" width="77" height="21" as="geometry" />
        </mxCell>
        <mxCell id="jc9Oq-ymmOkImTj3RlM5-22" value="2/5/2024" style="rounded=0;whiteSpace=wrap;html=1;" vertex="1" parent="1">
          <mxGeometry x="-25" y="31" width="66" height="21" as="geometry" />
        </mxCell>
        <mxCell id="jc9Oq-ymmOkImTj3RlM5-23" value="20" style="rounded=0;whiteSpace=wrap;html=1;" vertex="1" parent="1">
          <mxGeometry x="41" y="31" width="71" height="21" as="geometry" />
        </mxCell>
        <mxCell id="jc9Oq-ymmOkImTj3RlM5-24" value="Ανάπτυξη Λειτουργιών Εφαρμογής" style="rounded=0;whiteSpace=wrap;html=1;" vertex="1" parent="1">
          <mxGeometry x="-299" y="52" width="197" height="21" as="geometry" />
        </mxCell>
        <mxCell id="jc9Oq-ymmOkImTj3RlM5-25" value="18/5/2024" style="rounded=0;whiteSpace=wrap;html=1;" vertex="1" parent="1">
          <mxGeometry x="-102" y="52" width="77" height="21" as="geometry" />
        </mxCell>
        <mxCell id="jc9Oq-ymmOkImTj3RlM5-26" value="27/7/2024" style="rounded=0;whiteSpace=wrap;html=1;" vertex="1" parent="1">
          <mxGeometry x="-25" y="52" width="66" height="21" as="geometry" />
        </mxCell>
        <mxCell id="jc9Oq-ymmOkImTj3RlM5-27" value="70" style="rounded=0;whiteSpace=wrap;html=1;" vertex="1" parent="1">
          <mxGeometry x="41" y="52" width="71" height="21" as="geometry" />
        </mxCell>
        <mxCell id="jc9Oq-ymmOkImTj3RlM5-28" value="White Box Testing" style="rounded=0;whiteSpace=wrap;html=1;" vertex="1" parent="1">
          <mxGeometry x="-299" y="73" width="197" height="21" as="geometry" />
        </mxCell>
        <mxCell id="jc9Oq-ymmOkImTj3RlM5-29" value="18/8/2024" style="rounded=0;whiteSpace=wrap;html=1;" vertex="1" parent="1">
          <mxGeometry x="-102" y="73" width="77" height="21" as="geometry" />
        </mxCell>
        <mxCell id="jc9Oq-ymmOkImTj3RlM5-30" value="17/9/2024" style="rounded=0;whiteSpace=wrap;html=1;" vertex="1" parent="1">
          <mxGeometry x="-25" y="73" width="66" height="21" as="geometry" />
        </mxCell>
        <mxCell id="jc9Oq-ymmOkImTj3RlM5-31" value="30" style="rounded=0;whiteSpace=wrap;html=1;" vertex="1" parent="1">
          <mxGeometry x="41" y="73" width="71" height="21" as="geometry" />
        </mxCell>
        <mxCell id="jc9Oq-ymmOkImTj3RlM5-32" value="Διόρθωση Λαθών από Testing" style="rounded=0;whiteSpace=wrap;html=1;" vertex="1" parent="1">
          <mxGeometry x="-299" y="94" width="197" height="21" as="geometry" />
        </mxCell>
        <mxCell id="jc9Oq-ymmOkImTj3RlM5-33" value="18/9/2024" style="rounded=0;whiteSpace=wrap;html=1;" vertex="1" parent="1">
          <mxGeometry x="-102" y="94" width="77" height="21" as="geometry" />
        </mxCell>
        <mxCell id="jc9Oq-ymmOkImTj3RlM5-34" value="17/11/2024" style="rounded=0;whiteSpace=wrap;html=1;" vertex="1" parent="1">
          <mxGeometry x="-25" y="94" width="66" height="21" as="geometry" />
        </mxCell>
        <mxCell id="jc9Oq-ymmOkImTj3RlM5-35" value="60" style="rounded=0;whiteSpace=wrap;html=1;" vertex="1" parent="1">
          <mxGeometry x="41" y="94" width="71" height="21" as="geometry" />
        </mxCell>
        <mxCell id="jc9Oq-ymmOkImTj3RlM5-40" value="Έλεγχος Ποιότητας Κώδικα" style="rounded=0;whiteSpace=wrap;html=1;" vertex="1" parent="1">
          <mxGeometry x="-299" y="115" width="197" height="21" as="geometry" />
        </mxCell>
        <mxCell id="jc9Oq-ymmOkImTj3RlM5-41" value="18/11/2024" style="rounded=0;whiteSpace=wrap;html=1;" vertex="1" parent="1">
          <mxGeometry x="-102" y="115" width="77" height="21" as="geometry" />
        </mxCell>
        <mxCell id="jc9Oq-ymmOkImTj3RlM5-42" value="7/12/2024" style="rounded=0;whiteSpace=wrap;html=1;" vertex="1" parent="1">
          <mxGeometry x="-25" y="115" width="66" height="21" as="geometry" />
        </mxCell>
        <mxCell id="jc9Oq-ymmOkImTj3RlM5-43" value="20" style="rounded=0;whiteSpace=wrap;html=1;" vertex="1" parent="1">
          <mxGeometry x="41" y="115" width="71" height="21" as="geometry" />
        </mxCell>
        <mxCell id="jc9Oq-ymmOkImTj3RlM5-44" value="Ανάλυση Απαιτήσεων" style="rounded=0;whiteSpace=wrap;html=1;" vertex="1" parent="1">
          <mxGeometry x="-299" y="136" width="197" height="21" as="geometry" />
        </mxCell>
        <mxCell id="jc9Oq-ymmOkImTj3RlM5-45" value="7/3/2024" style="rounded=0;whiteSpace=wrap;html=1;" vertex="1" parent="1">
          <mxGeometry x="-102" y="136" width="77" height="21" as="geometry" />
        </mxCell>
        <mxCell id="jc9Oq-ymmOkImTj3RlM5-46" value="12/3/2024" style="rounded=0;whiteSpace=wrap;html=1;" vertex="1" parent="1">
          <mxGeometry x="-25" y="136" width="66" height="21" as="geometry" />
        </mxCell>
        <mxCell id="jc9Oq-ymmOkImTj3RlM5-47" value="6" style="rounded=0;whiteSpace=wrap;html=1;" vertex="1" parent="1">
          <mxGeometry x="41" y="136" width="71" height="21" as="geometry" />
        </mxCell>
        <mxCell id="jc9Oq-ymmOkImTj3RlM5-48" value="Σχεδιασμός Λειτουργιών Εφαρμογής" style="rounded=0;whiteSpace=wrap;html=1;" vertex="1" parent="1">
          <mxGeometry x="-299" y="157" width="197" height="21" as="geometry" />
        </mxCell>
        <mxCell id="jc9Oq-ymmOkImTj3RlM5-49" value="13/3/2024" style="rounded=0;whiteSpace=wrap;html=1;" vertex="1" parent="1">
          <mxGeometry x="-102" y="157" width="77" height="21" as="geometry" />
        </mxCell>
        <mxCell id="jc9Oq-ymmOkImTj3RlM5-50" value="12/4/2024" style="rounded=0;whiteSpace=wrap;html=1;" vertex="1" parent="1">
          <mxGeometry x="-25" y="157" width="66" height="21" as="geometry" />
        </mxCell>
        <mxCell id="jc9Oq-ymmOkImTj3RlM5-51" value="30" style="rounded=0;whiteSpace=wrap;html=1;" vertex="1" parent="1">
          <mxGeometry x="41" y="157" width="71" height="21" as="geometry" />
        </mxCell>
        <mxCell id="jc9Oq-ymmOkImTj3RlM5-52" value="Σχεδιαμός UI" style="rounded=0;whiteSpace=wrap;html=1;" vertex="1" parent="1">
          <mxGeometry x="-299" y="178" width="197" height="21" as="geometry" />
        </mxCell>
        <mxCell id="jc9Oq-ymmOkImTj3RlM5-53" value="13/4/2024" style="rounded=0;whiteSpace=wrap;html=1;" vertex="1" parent="1">
          <mxGeometry x="-102" y="178" width="77" height="21" as="geometry" />
        </mxCell>
        <mxCell id="jc9Oq-ymmOkImTj3RlM5-54" value="12/5/2024" style="rounded=0;whiteSpace=wrap;html=1;" vertex="1" parent="1">
          <mxGeometry x="-25" y="178" width="66" height="21" as="geometry" />
        </mxCell>
        <mxCell id="jc9Oq-ymmOkImTj3RlM5-55" value="30" style="rounded=0;whiteSpace=wrap;html=1;" vertex="1" parent="1">
          <mxGeometry x="41" y="178" width="71" height="21" as="geometry" />
        </mxCell>
        <mxCell id="jc9Oq-ymmOkImTj3RlM5-56" value="Παρουσίαση στον Πελάτη" style="rounded=0;whiteSpace=wrap;html=1;" vertex="1" parent="1">
          <mxGeometry x="-299" y="199" width="197" height="21" as="geometry" />
        </mxCell>
        <mxCell id="jc9Oq-ymmOkImTj3RlM5-57" value="13/5/2024" style="rounded=0;whiteSpace=wrap;html=1;" vertex="1" parent="1">
          <mxGeometry x="-102" y="199" width="77" height="21" as="geometry" />
        </mxCell>
        <mxCell id="jc9Oq-ymmOkImTj3RlM5-58" value="17/5/2024" style="rounded=0;whiteSpace=wrap;html=1;" vertex="1" parent="1">
          <mxGeometry x="-25" y="199" width="66" height="21" as="geometry" />
        </mxCell>
        <mxCell id="jc9Oq-ymmOkImTj3RlM5-59" value="5" style="rounded=0;whiteSpace=wrap;html=1;" vertex="1" parent="1">
          <mxGeometry x="41" y="199" width="71" height="21" as="geometry" />
        </mxCell>
        <mxCell id="jc9Oq-ymmOkImTj3RlM5-60" value="Ανάπτυξη Λειτουργιών Εφαρμογής" style="rounded=0;whiteSpace=wrap;html=1;" vertex="1" parent="1">
          <mxGeometry x="-299" y="220" width="197" height="21" as="geometry" />
        </mxCell>
        <mxCell id="jc9Oq-ymmOkImTj3RlM5-61" value="18/5/2024" style="rounded=0;whiteSpace=wrap;html=1;" vertex="1" parent="1">
          <mxGeometry x="-102" y="220" width="77" height="21" as="geometry" />
        </mxCell>
        <mxCell id="jc9Oq-ymmOkImTj3RlM5-62" value="27/7/2024" style="rounded=0;whiteSpace=wrap;html=1;" vertex="1" parent="1">
          <mxGeometry x="-25" y="220" width="66" height="21" as="geometry" />
        </mxCell>
        <mxCell id="jc9Oq-ymmOkImTj3RlM5-63" value="70" style="rounded=0;whiteSpace=wrap;html=1;" vertex="1" parent="1">
          <mxGeometry x="41" y="220" width="71" height="21" as="geometry" />
        </mxCell>
        <mxCell id="jc9Oq-ymmOkImTj3RlM5-64" value="White Box Testing" style="rounded=0;whiteSpace=wrap;html=1;" vertex="1" parent="1">
          <mxGeometry x="-299" y="241" width="197" height="21" as="geometry" />
        </mxCell>
        <mxCell id="jc9Oq-ymmOkImTj3RlM5-65" value="18/8/2024" style="rounded=0;whiteSpace=wrap;html=1;" vertex="1" parent="1">
          <mxGeometry x="-102" y="241" width="77" height="21" as="geometry" />
        </mxCell>
        <mxCell id="jc9Oq-ymmOkImTj3RlM5-66" value="17/9/2024" style="rounded=0;whiteSpace=wrap;html=1;" vertex="1" parent="1">
          <mxGeometry x="-25" y="241" width="66" height="21" as="geometry" />
        </mxCell>
        <mxCell id="jc9Oq-ymmOkImTj3RlM5-67" value="30" style="rounded=0;whiteSpace=wrap;html=1;" vertex="1" parent="1">
          <mxGeometry x="41" y="241" width="71" height="21" as="geometry" />
        </mxCell>
        <mxCell id="jc9Oq-ymmOkImTj3RlM5-68" value="Διόρθωση Λαθών από Testing" style="rounded=0;whiteSpace=wrap;html=1;" vertex="1" parent="1">
          <mxGeometry x="-299" y="262" width="197" height="21" as="geometry" />
        </mxCell>
        <mxCell id="jc9Oq-ymmOkImTj3RlM5-69" value="18/9/2024" style="rounded=0;whiteSpace=wrap;html=1;" vertex="1" parent="1">
          <mxGeometry x="-102" y="262" width="77" height="21" as="geometry" />
        </mxCell>
        <mxCell id="jc9Oq-ymmOkImTj3RlM5-70" value="17/11/2024" style="rounded=0;whiteSpace=wrap;html=1;" vertex="1" parent="1">
          <mxGeometry x="-25" y="262" width="66" height="21" as="geometry" />
        </mxCell>
        <mxCell id="jc9Oq-ymmOkImTj3RlM5-71" value="60" style="rounded=0;whiteSpace=wrap;html=1;" vertex="1" parent="1">
          <mxGeometry x="41" y="262" width="71" height="21" as="geometry" />
        </mxCell>
        <mxCell id="jc9Oq-ymmOkImTj3RlM5-72" value="" style="rounded=0;whiteSpace=wrap;html=1;" vertex="1" parent="1">
          <mxGeometry x="112" y="-11" width="936" height="21" as="geometry" />
        </mxCell>
        <mxCell id="jc9Oq-ymmOkImTj3RlM5-78" value="" style="rounded=0;whiteSpace=wrap;html=1;" vertex="1" parent="1">
          <mxGeometry x="112" y="10" width="936" height="21" as="geometry" />
        </mxCell>
        <mxCell id="jc9Oq-ymmOkImTj3RlM5-79" value="" style="rounded=0;whiteSpace=wrap;html=1;" vertex="1" parent="1">
          <mxGeometry x="112" y="31" width="936" height="21" as="geometry" />
        </mxCell>
        <mxCell id="jc9Oq-ymmOkImTj3RlM5-80" value="" style="rounded=0;whiteSpace=wrap;html=1;" vertex="1" parent="1">
          <mxGeometry x="112" y="52" width="936" height="21" as="geometry" />
        </mxCell>
        <mxCell id="jc9Oq-ymmOkImTj3RlM5-81" value="" style="rounded=0;whiteSpace=wrap;html=1;" vertex="1" parent="1">
          <mxGeometry x="112" y="73" width="936" height="21" as="geometry" />
        </mxCell>
        <mxCell id="jc9Oq-ymmOkImTj3RlM5-82" value="" style="rounded=0;whiteSpace=wrap;html=1;" vertex="1" parent="1">
          <mxGeometry x="112" y="94" width="936" height="21" as="geometry" />
        </mxCell>
        <mxCell id="jc9Oq-ymmOkImTj3RlM5-83" value="" style="rounded=0;whiteSpace=wrap;html=1;" vertex="1" parent="1">
          <mxGeometry x="112" y="115" width="936" height="21" as="geometry" />
        </mxCell>
        <mxCell id="jc9Oq-ymmOkImTj3RlM5-86" value="" style="rounded=0;whiteSpace=wrap;html=1;" vertex="1" parent="1">
          <mxGeometry x="112" y="136" width="936" height="21" as="geometry" />
        </mxCell>
        <mxCell id="jc9Oq-ymmOkImTj3RlM5-87" value="" style="rounded=0;whiteSpace=wrap;html=1;" vertex="1" parent="1">
          <mxGeometry x="112" y="157" width="936" height="21" as="geometry" />
        </mxCell>
        <mxCell id="jc9Oq-ymmOkImTj3RlM5-88" value="" style="rounded=0;whiteSpace=wrap;html=1;" vertex="1" parent="1">
          <mxGeometry x="112" y="178" width="936" height="21" as="geometry" />
        </mxCell>
        <mxCell id="jc9Oq-ymmOkImTj3RlM5-89" value="" style="rounded=0;whiteSpace=wrap;html=1;" vertex="1" parent="1">
          <mxGeometry x="112" y="199" width="936" height="21" as="geometry" />
        </mxCell>
        <mxCell id="jc9Oq-ymmOkImTj3RlM5-90" value="" style="rounded=0;whiteSpace=wrap;html=1;" vertex="1" parent="1">
          <mxGeometry x="112" y="220" width="936" height="21" as="geometry" />
        </mxCell>
        <mxCell id="jc9Oq-ymmOkImTj3RlM5-91" value="" style="rounded=0;whiteSpace=wrap;html=1;" vertex="1" parent="1">
          <mxGeometry x="112" y="241" width="936" height="21" as="geometry" />
        </mxCell>
        <mxCell id="jc9Oq-ymmOkImTj3RlM5-92" value="" style="rounded=0;whiteSpace=wrap;html=1;" vertex="1" parent="1">
          <mxGeometry x="112" y="262" width="936" height="21" as="geometry" />
        </mxCell>
        <mxCell id="jc9Oq-ymmOkImTj3RlM5-93" value="Άτομα" style="rounded=0;whiteSpace=wrap;html=1;" vertex="1" parent="1">
          <mxGeometry x="-447" y="-35" width="148" height="24" as="geometry" />
        </mxCell>
        <mxCell id="jc9Oq-ymmOkImTj3RlM5-94" value="Κωνσταντίνος" style="rounded=0;whiteSpace=wrap;html=1;" vertex="1" parent="1">
          <mxGeometry x="-447" y="-11" width="148" height="147" as="geometry" />
        </mxCell>
        <mxCell id="jc9Oq-ymmOkImTj3RlM5-100" value="Έλεγχος Ποιότητας Κώδικα" style="rounded=0;whiteSpace=wrap;html=1;" vertex="1" parent="1">
          <mxGeometry x="-299" y="283" width="197" height="21" as="geometry" />
        </mxCell>
        <mxCell id="jc9Oq-ymmOkImTj3RlM5-101" value="18/11/2024" style="rounded=0;whiteSpace=wrap;html=1;" vertex="1" parent="1">
          <mxGeometry x="-102" y="283" width="77" height="21" as="geometry" />
        </mxCell>
        <mxCell id="jc9Oq-ymmOkImTj3RlM5-102" value="7/12/2024" style="rounded=0;whiteSpace=wrap;html=1;" vertex="1" parent="1">
          <mxGeometry x="-25" y="283" width="66" height="21" as="geometry" />
        </mxCell>
        <mxCell id="jc9Oq-ymmOkImTj3RlM5-103" value="20" style="rounded=0;whiteSpace=wrap;html=1;" vertex="1" parent="1">
          <mxGeometry x="41" y="283" width="71" height="21" as="geometry" />
        </mxCell>
        <mxCell id="jc9Oq-ymmOkImTj3RlM5-104" value="" style="rounded=0;whiteSpace=wrap;html=1;" vertex="1" parent="1">
          <mxGeometry x="112" y="283" width="936" height="21" as="geometry" />
        </mxCell>
        <mxCell id="jc9Oq-ymmOkImTj3RlM5-105" value="Νεκτάριος" style="rounded=0;whiteSpace=wrap;html=1;" vertex="1" parent="1">
          <mxGeometry x="-447" y="136" width="148" height="168" as="geometry" />
        </mxCell>
        <mxCell id="jc9Oq-ymmOkImTj3RlM5-106" value="Επικοινωνία με τον Πελάτη" style="rounded=0;whiteSpace=wrap;html=1;" vertex="1" parent="1">
          <mxGeometry x="-299" y="304" width="197" height="21" as="geometry" />
        </mxCell>
        <mxCell id="jc9Oq-ymmOkImTj3RlM5-107" value="1/3/2024" style="rounded=0;whiteSpace=wrap;html=1;" vertex="1" parent="1">
          <mxGeometry x="-102" y="304" width="77" height="21" as="geometry" />
        </mxCell>
        <mxCell id="jc9Oq-ymmOkImTj3RlM5-108" value="6/3/2024" style="rounded=0;whiteSpace=wrap;html=1;" vertex="1" parent="1">
          <mxGeometry x="-25" y="304" width="66" height="21" as="geometry" />
        </mxCell>
        <mxCell id="jc9Oq-ymmOkImTj3RlM5-109" value="5" style="rounded=0;whiteSpace=wrap;html=1;" vertex="1" parent="1">
          <mxGeometry x="41" y="304" width="71" height="21" as="geometry" />
        </mxCell>
        <mxCell id="jc9Oq-ymmOkImTj3RlM5-110" value="" style="rounded=0;whiteSpace=wrap;html=1;" vertex="1" parent="1">
          <mxGeometry x="112" y="304" width="936" height="21" as="geometry" />
        </mxCell>
        <mxCell id="jc9Oq-ymmOkImTj3RlM5-111" value="Ανάλυση Απαιτήσεων" style="rounded=0;whiteSpace=wrap;html=1;" vertex="1" parent="1">
          <mxGeometry x="-299" y="325" width="197" height="21" as="geometry" />
        </mxCell>
        <mxCell id="jc9Oq-ymmOkImTj3RlM5-112" value="7/3/2024" style="rounded=0;whiteSpace=wrap;html=1;" vertex="1" parent="1">
          <mxGeometry x="-102" y="325" width="77" height="21" as="geometry" />
        </mxCell>
        <mxCell id="jc9Oq-ymmOkImTj3RlM5-113" value="12/3/2024" style="rounded=0;whiteSpace=wrap;html=1;" vertex="1" parent="1">
          <mxGeometry x="-25" y="325" width="66" height="21" as="geometry" />
        </mxCell>
        <mxCell id="jc9Oq-ymmOkImTj3RlM5-114" value="6" style="rounded=0;whiteSpace=wrap;html=1;" vertex="1" parent="1">
          <mxGeometry x="41" y="325" width="71" height="21" as="geometry" />
        </mxCell>
        <mxCell id="jc9Oq-ymmOkImTj3RlM5-115" value="" style="rounded=0;whiteSpace=wrap;html=1;" vertex="1" parent="1">
          <mxGeometry x="112" y="325" width="936" height="21" as="geometry" />
        </mxCell>
        <mxCell id="jc9Oq-ymmOkImTj3RlM5-121" value="Σχεδιασμός Λειτουργιών Εφαρμογής" style="rounded=0;whiteSpace=wrap;html=1;" vertex="1" parent="1">
          <mxGeometry x="-299" y="346" width="197" height="21" as="geometry" />
        </mxCell>
        <mxCell id="jc9Oq-ymmOkImTj3RlM5-122" value="13/3/2024" style="rounded=0;whiteSpace=wrap;html=1;" vertex="1" parent="1">
          <mxGeometry x="-102" y="346" width="77" height="21" as="geometry" />
        </mxCell>
        <mxCell id="jc9Oq-ymmOkImTj3RlM5-123" value="12/4/2024" style="rounded=0;whiteSpace=wrap;html=1;" vertex="1" parent="1">
          <mxGeometry x="-25" y="346" width="66" height="21" as="geometry" />
        </mxCell>
        <mxCell id="jc9Oq-ymmOkImTj3RlM5-124" value="30" style="rounded=0;whiteSpace=wrap;html=1;" vertex="1" parent="1">
          <mxGeometry x="41" y="346" width="71" height="21" as="geometry" />
        </mxCell>
        <mxCell id="jc9Oq-ymmOkImTj3RlM5-125" value="" style="rounded=0;whiteSpace=wrap;html=1;" vertex="1" parent="1">
          <mxGeometry x="112" y="346" width="936" height="21" as="geometry" />
        </mxCell>
        <mxCell id="jc9Oq-ymmOkImTj3RlM5-126" value="Σχεδιασμός Βάσης Δεδομένων" style="rounded=0;whiteSpace=wrap;html=1;" vertex="1" parent="1">
          <mxGeometry x="-299" y="367" width="197" height="21" as="geometry" />
        </mxCell>
        <mxCell id="jc9Oq-ymmOkImTj3RlM5-127" value="13/4/2024" style="rounded=0;whiteSpace=wrap;html=1;" vertex="1" parent="1">
          <mxGeometry x="-102" y="367" width="77" height="21" as="geometry" />
        </mxCell>
        <mxCell id="jc9Oq-ymmOkImTj3RlM5-128" value="2/5/2024" style="rounded=0;whiteSpace=wrap;html=1;" vertex="1" parent="1">
          <mxGeometry x="-25" y="367" width="66" height="21" as="geometry" />
        </mxCell>
        <mxCell id="jc9Oq-ymmOkImTj3RlM5-129" value="20" style="rounded=0;whiteSpace=wrap;html=1;" vertex="1" parent="1">
          <mxGeometry x="41" y="367" width="71" height="21" as="geometry" />
        </mxCell>
        <mxCell id="jc9Oq-ymmOkImTj3RlM5-130" value="" style="rounded=0;whiteSpace=wrap;html=1;" vertex="1" parent="1">
          <mxGeometry x="112" y="367" width="936" height="21" as="geometry" />
        </mxCell>
        <mxCell id="jc9Oq-ymmOkImTj3RlM5-131" value="Ανάπτυξη Βάσης Δεδομένων" style="rounded=0;whiteSpace=wrap;html=1;" vertex="1" parent="1">
          <mxGeometry x="-299" y="388" width="197" height="21" as="geometry" />
        </mxCell>
        <mxCell id="jc9Oq-ymmOkImTj3RlM5-132" value="18/5/2024" style="rounded=0;whiteSpace=wrap;html=1;" vertex="1" parent="1">
          <mxGeometry x="-102" y="388" width="77" height="21" as="geometry" />
        </mxCell>
        <mxCell id="jc9Oq-ymmOkImTj3RlM5-133" value="7/6/2024" style="rounded=0;whiteSpace=wrap;html=1;" vertex="1" parent="1">
          <mxGeometry x="-25" y="388" width="66" height="21" as="geometry" />
        </mxCell>
        <mxCell id="jc9Oq-ymmOkImTj3RlM5-134" value="20" style="rounded=0;whiteSpace=wrap;html=1;" vertex="1" parent="1">
          <mxGeometry x="41" y="388" width="71" height="21" as="geometry" />
        </mxCell>
        <mxCell id="jc9Oq-ymmOkImTj3RlM5-135" value="" style="rounded=0;whiteSpace=wrap;html=1;" vertex="1" parent="1">
          <mxGeometry x="112" y="388" width="936" height="21" as="geometry" />
        </mxCell>
        <mxCell id="jc9Oq-ymmOkImTj3RlM5-136" value="Black Box Testing" style="rounded=0;whiteSpace=wrap;html=1;" vertex="1" parent="1">
          <mxGeometry x="-299" y="409" width="197" height="21" as="geometry" />
        </mxCell>
        <mxCell id="jc9Oq-ymmOkImTj3RlM5-137" value="18/8/2024" style="rounded=0;whiteSpace=wrap;html=1;" vertex="1" parent="1">
          <mxGeometry x="-102" y="409" width="77" height="21" as="geometry" />
        </mxCell>
        <mxCell id="jc9Oq-ymmOkImTj3RlM5-138" value="7/9/2024" style="rounded=0;whiteSpace=wrap;html=1;" vertex="1" parent="1">
          <mxGeometry x="-25" y="409" width="66" height="21" as="geometry" />
        </mxCell>
        <mxCell id="jc9Oq-ymmOkImTj3RlM5-139" value="20" style="rounded=0;whiteSpace=wrap;html=1;" vertex="1" parent="1">
          <mxGeometry x="41" y="409" width="71" height="21" as="geometry" />
        </mxCell>
        <mxCell id="jc9Oq-ymmOkImTj3RlM5-140" value="" style="rounded=0;whiteSpace=wrap;html=1;" vertex="1" parent="1">
          <mxGeometry x="112" y="409" width="936" height="21" as="geometry" />
        </mxCell>
        <mxCell id="jc9Oq-ymmOkImTj3RlM5-146" value="Διόρθωση Λαθών από Testing" style="rounded=0;whiteSpace=wrap;html=1;" vertex="1" parent="1">
          <mxGeometry x="-299" y="430" width="197" height="21" as="geometry" />
        </mxCell>
        <mxCell id="jc9Oq-ymmOkImTj3RlM5-147" value="18/9/2024" style="rounded=0;whiteSpace=wrap;html=1;" vertex="1" parent="1">
          <mxGeometry x="-102" y="430" width="77" height="21" as="geometry" />
        </mxCell>
        <mxCell id="jc9Oq-ymmOkImTj3RlM5-148" value="17/11/2024" style="rounded=0;whiteSpace=wrap;html=1;" vertex="1" parent="1">
          <mxGeometry x="-25" y="430" width="66" height="21" as="geometry" />
        </mxCell>
        <mxCell id="jc9Oq-ymmOkImTj3RlM5-149" value="60" style="rounded=0;whiteSpace=wrap;html=1;" vertex="1" parent="1">
          <mxGeometry x="41" y="430" width="71" height="21" as="geometry" />
        </mxCell>
        <mxCell id="jc9Oq-ymmOkImTj3RlM5-150" value="" style="rounded=0;whiteSpace=wrap;html=1;" vertex="1" parent="1">
          <mxGeometry x="112" y="430" width="936" height="21" as="geometry" />
        </mxCell>
        <mxCell id="jc9Oq-ymmOkImTj3RlM5-151" value="Παράδοση σε Πελάτη" style="rounded=0;whiteSpace=wrap;html=1;" vertex="1" parent="1">
          <mxGeometry x="-299" y="451" width="197" height="21" as="geometry" />
        </mxCell>
        <mxCell id="jc9Oq-ymmOkImTj3RlM5-152" value="8/12/2024" style="rounded=0;whiteSpace=wrap;html=1;" vertex="1" parent="1">
          <mxGeometry x="-102" y="451" width="77" height="21" as="geometry" />
        </mxCell>
        <mxCell id="jc9Oq-ymmOkImTj3RlM5-153" value="12/12/2024" style="rounded=0;whiteSpace=wrap;html=1;" vertex="1" parent="1">
          <mxGeometry x="-25" y="451" width="66" height="21" as="geometry" />
        </mxCell>
        <mxCell id="jc9Oq-ymmOkImTj3RlM5-154" value="5" style="rounded=0;whiteSpace=wrap;html=1;" vertex="1" parent="1">
          <mxGeometry x="41" y="451" width="71" height="21" as="geometry" />
        </mxCell>
        <mxCell id="jc9Oq-ymmOkImTj3RlM5-155" value="" style="rounded=0;whiteSpace=wrap;html=1;" vertex="1" parent="1">
          <mxGeometry x="112" y="451" width="936" height="21" as="geometry" />
        </mxCell>
        <mxCell id="jc9Oq-ymmOkImTj3RlM5-161" value="Ανάλυση Απαιτήσεων" style="rounded=0;whiteSpace=wrap;html=1;" vertex="1" parent="1">
          <mxGeometry x="-299" y="472" width="197" height="21" as="geometry" />
        </mxCell>
        <mxCell id="jc9Oq-ymmOkImTj3RlM5-162" value="7/3/2024" style="rounded=0;whiteSpace=wrap;html=1;" vertex="1" parent="1">
          <mxGeometry x="-102" y="472" width="77" height="21" as="geometry" />
        </mxCell>
        <mxCell id="jc9Oq-ymmOkImTj3RlM5-163" value="12/3/2024" style="rounded=0;whiteSpace=wrap;html=1;" vertex="1" parent="1">
          <mxGeometry x="-25" y="472" width="66" height="21" as="geometry" />
        </mxCell>
        <mxCell id="jc9Oq-ymmOkImTj3RlM5-164" value="6" style="rounded=0;whiteSpace=wrap;html=1;" vertex="1" parent="1">
          <mxGeometry x="41" y="472" width="71" height="21" as="geometry" />
        </mxCell>
        <mxCell id="jc9Oq-ymmOkImTj3RlM5-165" value="" style="rounded=0;whiteSpace=wrap;html=1;" vertex="1" parent="1">
          <mxGeometry x="112" y="472" width="936" height="21" as="geometry" />
        </mxCell>
        <mxCell id="jc9Oq-ymmOkImTj3RlM5-166" value="Σχεδιασμός Λειτουργιών Εφαρμογής" style="rounded=0;whiteSpace=wrap;html=1;" vertex="1" parent="1">
          <mxGeometry x="-299" y="493" width="197" height="21" as="geometry" />
        </mxCell>
        <mxCell id="jc9Oq-ymmOkImTj3RlM5-167" value="13/3/2024" style="rounded=0;whiteSpace=wrap;html=1;" vertex="1" parent="1">
          <mxGeometry x="-102" y="493" width="77" height="21" as="geometry" />
        </mxCell>
        <mxCell id="jc9Oq-ymmOkImTj3RlM5-168" value="12/4/2024" style="rounded=0;whiteSpace=wrap;html=1;" vertex="1" parent="1">
          <mxGeometry x="-25" y="493" width="66" height="21" as="geometry" />
        </mxCell>
        <mxCell id="jc9Oq-ymmOkImTj3RlM5-169" value="30" style="rounded=0;whiteSpace=wrap;html=1;" vertex="1" parent="1">
          <mxGeometry x="41" y="493" width="71" height="21" as="geometry" />
        </mxCell>
        <mxCell id="jc9Oq-ymmOkImTj3RlM5-170" value="" style="rounded=0;whiteSpace=wrap;html=1;" vertex="1" parent="1">
          <mxGeometry x="112" y="493" width="936" height="21" as="geometry" />
        </mxCell>
        <mxCell id="jc9Oq-ymmOkImTj3RlM5-176" value="Σχεδιαμός UI" style="rounded=0;whiteSpace=wrap;html=1;" vertex="1" parent="1">
          <mxGeometry x="-299" y="514" width="197" height="21" as="geometry" />
        </mxCell>
        <mxCell id="jc9Oq-ymmOkImTj3RlM5-177" value="13/4/2024" style="rounded=0;whiteSpace=wrap;html=1;" vertex="1" parent="1">
          <mxGeometry x="-102" y="514" width="77" height="21" as="geometry" />
        </mxCell>
        <mxCell id="jc9Oq-ymmOkImTj3RlM5-178" value="12/5/2024" style="rounded=0;whiteSpace=wrap;html=1;" vertex="1" parent="1">
          <mxGeometry x="-25" y="514" width="66" height="21" as="geometry" />
        </mxCell>
        <mxCell id="jc9Oq-ymmOkImTj3RlM5-179" value="30" style="rounded=0;whiteSpace=wrap;html=1;" vertex="1" parent="1">
          <mxGeometry x="41" y="514" width="71" height="21" as="geometry" />
        </mxCell>
        <mxCell id="jc9Oq-ymmOkImTj3RlM5-180" value="" style="rounded=0;whiteSpace=wrap;html=1;" vertex="1" parent="1">
          <mxGeometry x="112" y="514" width="936" height="21" as="geometry" />
        </mxCell>
        <mxCell id="jc9Oq-ymmOkImTj3RlM5-181" value="Υλοποίηση GUI" style="rounded=0;whiteSpace=wrap;html=1;" vertex="1" parent="1">
          <mxGeometry x="-299" y="533" width="197" height="21" as="geometry" />
        </mxCell>
        <mxCell id="jc9Oq-ymmOkImTj3RlM5-182" value="18/5/2024" style="rounded=0;whiteSpace=wrap;html=1;" vertex="1" parent="1">
          <mxGeometry x="-102" y="533" width="77" height="21" as="geometry" />
        </mxCell>
        <mxCell id="jc9Oq-ymmOkImTj3RlM5-183" value="17/8/2024" style="rounded=0;whiteSpace=wrap;html=1;" vertex="1" parent="1">
          <mxGeometry x="-25" y="533" width="66" height="21" as="geometry" />
        </mxCell>
        <mxCell id="jc9Oq-ymmOkImTj3RlM5-184" value="90" style="rounded=0;whiteSpace=wrap;html=1;" vertex="1" parent="1">
          <mxGeometry x="41" y="533" width="71" height="21" as="geometry" />
        </mxCell>
        <mxCell id="jc9Oq-ymmOkImTj3RlM5-185" value="" style="rounded=0;whiteSpace=wrap;html=1;" vertex="1" parent="1">
          <mxGeometry x="112" y="533" width="936" height="21" as="geometry" />
        </mxCell>
        <mxCell id="jc9Oq-ymmOkImTj3RlM5-186" value="Black Box Testing" style="rounded=0;whiteSpace=wrap;html=1;" vertex="1" parent="1">
          <mxGeometry x="-299" y="554" width="197" height="21" as="geometry" />
        </mxCell>
        <mxCell id="jc9Oq-ymmOkImTj3RlM5-187" value="18/8/2024" style="rounded=0;whiteSpace=wrap;html=1;" vertex="1" parent="1">
          <mxGeometry x="-102" y="554" width="77" height="21" as="geometry" />
        </mxCell>
        <mxCell id="jc9Oq-ymmOkImTj3RlM5-188" value="7/9/2024" style="rounded=0;whiteSpace=wrap;html=1;" vertex="1" parent="1">
          <mxGeometry x="-25" y="554" width="66" height="21" as="geometry" />
        </mxCell>
        <mxCell id="jc9Oq-ymmOkImTj3RlM5-189" value="20" style="rounded=0;whiteSpace=wrap;html=1;" vertex="1" parent="1">
          <mxGeometry x="41" y="554" width="71" height="21" as="geometry" />
        </mxCell>
        <mxCell id="jc9Oq-ymmOkImTj3RlM5-190" value="" style="rounded=0;whiteSpace=wrap;html=1;" vertex="1" parent="1">
          <mxGeometry x="112" y="554" width="936" height="21" as="geometry" />
        </mxCell>
        <mxCell id="jc9Oq-ymmOkImTj3RlM5-191" value="Διόρθωση Λαθών από Testing" style="rounded=0;whiteSpace=wrap;html=1;" vertex="1" parent="1">
          <mxGeometry x="-299" y="575" width="197" height="21" as="geometry" />
        </mxCell>
        <mxCell id="jc9Oq-ymmOkImTj3RlM5-192" value="18/9/2024" style="rounded=0;whiteSpace=wrap;html=1;" vertex="1" parent="1">
          <mxGeometry x="-102" y="575" width="77" height="21" as="geometry" />
        </mxCell>
        <mxCell id="jc9Oq-ymmOkImTj3RlM5-193" value="17/11/2024" style="rounded=0;whiteSpace=wrap;html=1;" vertex="1" parent="1">
          <mxGeometry x="-25" y="575" width="66" height="21" as="geometry" />
        </mxCell>
        <mxCell id="jc9Oq-ymmOkImTj3RlM5-194" value="60" style="rounded=0;whiteSpace=wrap;html=1;" vertex="1" parent="1">
          <mxGeometry x="41" y="575" width="71" height="21" as="geometry" />
        </mxCell>
        <mxCell id="jc9Oq-ymmOkImTj3RlM5-195" value="" style="rounded=0;whiteSpace=wrap;html=1;" vertex="1" parent="1">
          <mxGeometry x="112" y="575" width="936" height="21" as="geometry" />
        </mxCell>
        <mxCell id="jc9Oq-ymmOkImTj3RlM5-196" value="Παράδοση σε Πελάτη" style="rounded=0;whiteSpace=wrap;html=1;" vertex="1" parent="1">
          <mxGeometry x="-299" y="596" width="197" height="21" as="geometry" />
        </mxCell>
        <mxCell id="jc9Oq-ymmOkImTj3RlM5-197" value="8/12/2024" style="rounded=0;whiteSpace=wrap;html=1;" vertex="1" parent="1">
          <mxGeometry x="-102" y="596" width="77" height="21" as="geometry" />
        </mxCell>
        <mxCell id="jc9Oq-ymmOkImTj3RlM5-198" value="12/12/2024" style="rounded=0;whiteSpace=wrap;html=1;" vertex="1" parent="1">
          <mxGeometry x="-25" y="596" width="66" height="21" as="geometry" />
        </mxCell>
        <mxCell id="jc9Oq-ymmOkImTj3RlM5-199" value="5" style="rounded=0;whiteSpace=wrap;html=1;" vertex="1" parent="1">
          <mxGeometry x="41" y="596" width="71" height="21" as="geometry" />
        </mxCell>
        <mxCell id="jc9Oq-ymmOkImTj3RlM5-200" value="" style="rounded=0;whiteSpace=wrap;html=1;" vertex="1" parent="1">
          <mxGeometry x="112" y="596" width="936" height="21" as="geometry" />
        </mxCell>
        <mxCell id="jc9Oq-ymmOkImTj3RlM5-211" value="Περικλής Λ." style="rounded=0;whiteSpace=wrap;html=1;" vertex="1" parent="1">
          <mxGeometry x="-447" y="304" width="148" height="168" as="geometry" />
        </mxCell>
        <mxCell id="jc9Oq-ymmOkImTj3RlM5-212" value="Περικλής Μπ." style="rounded=0;whiteSpace=wrap;html=1;" vertex="1" parent="1">
          <mxGeometry x="-447" y="472" width="148" height="145" as="geometry" />
        </mxCell>
        <mxCell id="jc9Oq-ymmOkImTj3RlM5-213" value="" style="rounded=0;whiteSpace=wrap;html=1;fillColor=#0050ef;fontColor=#ffffff;strokeColor=#001DBC;" vertex="1" parent="1">
          <mxGeometry x="112" y="304.5" width="43" height="20" as="geometry" />
        </mxCell>
        <mxCell id="jc9Oq-ymmOkImTj3RlM5-216" value="" style="rounded=0;whiteSpace=wrap;html=1;fillColor=#0050ef;fontColor=#ffffff;strokeColor=#001DBC;" vertex="1" parent="1">
          <mxGeometry x="155" y="-11" width="77" height="20" as="geometry" />
        </mxCell>
        <mxCell id="jc9Oq-ymmOkImTj3RlM5-218" value="" style="rounded=0;whiteSpace=wrap;html=1;fillColor=#0050ef;fontColor=#ffffff;strokeColor=#001DBC;" vertex="1" parent="1">
          <mxGeometry x="155" y="136.5" width="77" height="20" as="geometry" />
        </mxCell>
        <mxCell id="jc9Oq-ymmOkImTj3RlM5-219" value="" style="rounded=0;whiteSpace=wrap;html=1;fillColor=#0050ef;fontColor=#ffffff;strokeColor=#001DBC;" vertex="1" parent="1">
          <mxGeometry x="155" y="325.5" width="77" height="20" as="geometry" />
        </mxCell>
        <mxCell id="jc9Oq-ymmOkImTj3RlM5-220" value="" style="rounded=0;whiteSpace=wrap;html=1;fillColor=#0050ef;fontColor=#ffffff;strokeColor=#001DBC;" vertex="1" parent="1">
          <mxGeometry x="155" y="472.5" width="77" height="20" as="geometry" />
        </mxCell>
        <mxCell id="jc9Oq-ymmOkImTj3RlM5-221" value="" style="rounded=0;whiteSpace=wrap;html=1;fillColor=#0050ef;fontColor=#ffffff;strokeColor=#001DBC;" vertex="1" parent="1">
          <mxGeometry x="232" y="346.5" width="94" height="20" as="geometry" />
        </mxCell>
        <mxCell id="jc9Oq-ymmOkImTj3RlM5-222" value="" style="rounded=0;whiteSpace=wrap;html=1;fillColor=#0050ef;fontColor=#ffffff;strokeColor=#001DBC;" vertex="1" parent="1">
          <mxGeometry x="232" y="492.5" width="94" height="20" as="geometry" />
        </mxCell>
        <mxCell id="jc9Oq-ymmOkImTj3RlM5-223" value="" style="rounded=0;whiteSpace=wrap;html=1;fillColor=#0050ef;fontColor=#ffffff;strokeColor=#001DBC;" vertex="1" parent="1">
          <mxGeometry x="232" y="157.5" width="94" height="20" as="geometry" />
        </mxCell>
        <mxCell id="jc9Oq-ymmOkImTj3RlM5-224" value="" style="rounded=0;whiteSpace=wrap;html=1;fillColor=#0050ef;fontColor=#ffffff;strokeColor=#001DBC;" vertex="1" parent="1">
          <mxGeometry x="232" y="11" width="94" height="20" as="geometry" />
        </mxCell>
        <mxCell id="jc9Oq-ymmOkImTj3RlM5-225" value="" style="rounded=0;whiteSpace=wrap;html=1;fillColor=#0050ef;fontColor=#ffffff;strokeColor=#001DBC;" vertex="1" parent="1">
          <mxGeometry x="326" y="31.5" width="83" height="20" as="geometry" />
        </mxCell>
        <mxCell id="jc9Oq-ymmOkImTj3RlM5-228" value="" style="rounded=0;whiteSpace=wrap;html=1;fillColor=#0050ef;fontColor=#ffffff;strokeColor=#001DBC;" vertex="1" parent="1">
          <mxGeometry x="326" y="367.5" width="83" height="20" as="geometry" />
        </mxCell>
        <mxCell id="jc9Oq-ymmOkImTj3RlM5-229" value="" style="rounded=0;whiteSpace=wrap;html=1;fillColor=#0050ef;fontColor=#ffffff;strokeColor=#001DBC;" vertex="1" parent="1">
          <mxGeometry x="326" y="178.5" width="119" height="20" as="geometry" />
        </mxCell>
        <mxCell id="jc9Oq-ymmOkImTj3RlM5-230" value="" style="rounded=0;whiteSpace=wrap;html=1;fillColor=#0050ef;fontColor=#ffffff;strokeColor=#001DBC;" vertex="1" parent="1">
          <mxGeometry x="326" y="514" width="119" height="20" as="geometry" />
        </mxCell>
        <mxCell id="jc9Oq-ymmOkImTj3RlM5-231" value="" style="rounded=0;whiteSpace=wrap;html=1;fillColor=#0050ef;fontColor=#ffffff;strokeColor=#001DBC;" vertex="1" parent="1">
          <mxGeometry x="448" y="199.5" width="43" height="20" as="geometry" />
        </mxCell>
        <mxCell id="jc9Oq-ymmOkImTj3RlM5-234" value="" style="rounded=0;whiteSpace=wrap;html=1;fillColor=#0050ef;fontColor=#ffffff;strokeColor=#001DBC;" vertex="1" parent="1">
          <mxGeometry x="491" y="220.5" width="149" height="20" as="geometry" />
        </mxCell>
        <mxCell id="jc9Oq-ymmOkImTj3RlM5-235" value="" style="rounded=0;whiteSpace=wrap;html=1;fillColor=#0050ef;fontColor=#ffffff;strokeColor=#001DBC;" vertex="1" parent="1">
          <mxGeometry x="491" y="52.5" width="149" height="20" as="geometry" />
        </mxCell>
        <mxCell id="jc9Oq-ymmOkImTj3RlM5-236" value="" style="rounded=0;whiteSpace=wrap;html=1;fillColor=#0050ef;fontColor=#ffffff;strokeColor=#001DBC;" vertex="1" parent="1">
          <mxGeometry x="491" y="388.5" width="77" height="20" as="geometry" />
        </mxCell>
        <mxCell id="jc9Oq-ymmOkImTj3RlM5-237" value="" style="rounded=0;whiteSpace=wrap;html=1;fillColor=#0050ef;fontColor=#ffffff;strokeColor=#001DBC;" vertex="1" parent="1">
          <mxGeometry x="491" y="534.5" width="77" height="20" as="geometry" />
        </mxCell>
        <mxCell id="jc9Oq-ymmOkImTj3RlM5-238" value="" style="rounded=0;whiteSpace=wrap;html=1;fillColor=#0050ef;fontColor=#ffffff;strokeColor=#001DBC;" vertex="1" parent="1">
          <mxGeometry x="640" y="73.5" width="107" height="20" as="geometry" />
        </mxCell>
        <mxCell id="jc9Oq-ymmOkImTj3RlM5-239" value="" style="rounded=0;whiteSpace=wrap;html=1;fillColor=#0050ef;fontColor=#ffffff;strokeColor=#001DBC;" vertex="1" parent="1">
          <mxGeometry x="640" y="240.5" width="107" height="20" as="geometry" />
        </mxCell>
        <mxCell id="jc9Oq-ymmOkImTj3RlM5-240" value="" style="rounded=0;whiteSpace=wrap;html=1;fillColor=#0050ef;fontColor=#ffffff;strokeColor=#001DBC;" vertex="1" parent="1">
          <mxGeometry x="640" y="409.5" width="77" height="20" as="geometry" />
        </mxCell>
        <mxCell id="jc9Oq-ymmOkImTj3RlM5-241" value="" style="rounded=0;whiteSpace=wrap;html=1;fillColor=#0050ef;fontColor=#ffffff;strokeColor=#001DBC;" vertex="1" parent="1">
          <mxGeometry x="644" y="555" width="77" height="20" as="geometry" />
        </mxCell>
        <mxCell id="jc9Oq-ymmOkImTj3RlM5-243" value="" style="rounded=0;whiteSpace=wrap;html=1;fillColor=#0050ef;fontColor=#ffffff;strokeColor=#001DBC;" vertex="1" parent="1">
          <mxGeometry x="747" y="94.5" width="174" height="20" as="geometry" />
        </mxCell>
        <mxCell id="jc9Oq-ymmOkImTj3RlM5-245" value="" style="rounded=0;whiteSpace=wrap;html=1;fillColor=#0050ef;fontColor=#ffffff;strokeColor=#001DBC;" vertex="1" parent="1">
          <mxGeometry x="747" y="262.5" width="174" height="20" as="geometry" />
        </mxCell>
        <mxCell id="jc9Oq-ymmOkImTj3RlM5-246" value="" style="rounded=0;whiteSpace=wrap;html=1;fillColor=#0050ef;fontColor=#ffffff;strokeColor=#001DBC;" vertex="1" parent="1">
          <mxGeometry x="747" y="430.5" width="174" height="20" as="geometry" />
        </mxCell>
        <mxCell id="jc9Oq-ymmOkImTj3RlM5-247" value="" style="rounded=0;whiteSpace=wrap;html=1;fillColor=#0050ef;fontColor=#ffffff;strokeColor=#001DBC;" vertex="1" parent="1">
          <mxGeometry x="747" y="576" width="174" height="20" as="geometry" />
        </mxCell>
        <mxCell id="jc9Oq-ymmOkImTj3RlM5-250" value="" style="rounded=0;whiteSpace=wrap;html=1;fillColor=#0050ef;fontColor=#ffffff;strokeColor=#001DBC;" vertex="1" parent="1">
          <mxGeometry x="1004" y="597" width="43" height="20" as="geometry" />
        </mxCell>
        <mxCell id="jc9Oq-ymmOkImTj3RlM5-251" value="" style="rounded=0;whiteSpace=wrap;html=1;fillColor=#0050ef;fontColor=#ffffff;strokeColor=#001DBC;" vertex="1" parent="1">
          <mxGeometry x="1004" y="451.5" width="43" height="20" as="geometry" />
        </mxCell>
        <mxCell id="jc9Oq-ymmOkImTj3RlM5-252" value="" style="rounded=0;whiteSpace=wrap;html=1;fillColor=#0050ef;fontColor=#ffffff;strokeColor=#001DBC;" vertex="1" parent="1">
          <mxGeometry x="921" y="114.5" width="83" height="20" as="geometry" />
        </mxCell>
        <mxCell id="jc9Oq-ymmOkImTj3RlM5-254" value="" style="rounded=0;whiteSpace=wrap;html=1;fillColor=#0050ef;fontColor=#ffffff;strokeColor=#001DBC;" vertex="1" parent="1">
          <mxGeometry x="921" y="283.5" width="83" height="20" as="geometry" />
        </mxCell>
        <mxCell id="jc9Oq-ymmOkImTj3RlM5-255" style="edgeStyle=none;curved=1;rounded=0;orthogonalLoop=1;jettySize=auto;html=1;exitX=0.5;exitY=0;exitDx=0;exitDy=0;fontSize=12;startSize=8;endSize=8;" edge="1" parent="1" source="jc9Oq-ymmOkImTj3RlM5-250" target="jc9Oq-ymmOkImTj3RlM5-250">
          <mxGeometry relative="1" as="geometry" />
        </mxCell>
      </root>
    </mxGraphModel>
  </diagram>
</mxfile>
